<svg width="228" height="193" viewBox="0 0 228 193" fill="none" xmlns="http://www.w3.org/2000/svg">
<g filter="url(#filter0_d_389_49)">
<path d="M95.5469 118.491C83.3292 113.652 84.148 99.0699 90.4409 83.1768C92.5017 77.9787 94.7649 73.2407 97.3456 69.395H88.6883C86.5124 72.293 84.6264 75.5959 83.2648 79.0965C79.755 88.131 78.2922 99.6679 80.7118 105.878C77.2847 100.602 74.5707 89.7824 79.4652 77.6843C80.7532 74.5011 82.4414 71.7456 84.3872 69.395H79.0788C77.3215 71.6904 75.8495 74.2481 74.7409 77.0541C67.9926 94.0881 76.9121 113.592 94.6545 120.621C96.9683 121.537 99.3144 122.19 101.665 122.604C101.435 121.822 101.141 120.962 100.814 119.66C99.1028 119.6 97.4146 119.232 95.5515 118.491H95.5469Z" fill="#005737"/>
<path d="M163.628 51.1746C158.655 49.7532 134.243 40.9211 131.142 36.3532C128.042 31.7854 121.321 24.6323 111.495 24.6323C101.67 24.6323 94.9491 31.7854 91.8486 36.3532C88.7482 40.9211 64.3357 49.7532 59.3631 51.1746C50.3148 53.7598 42.9915 60.4805 44.1139 65.9086C45.2363 71.3366 75.9969 54.4498 84.0975 50.3972C92.1982 46.3491 102.167 39.0213 111.528 39.0213C122.241 39.0213 130.802 46.3445 138.903 50.3972C147.003 54.4452 177.764 71.3366 178.886 65.9086C180.009 60.4805 172.681 53.7598 163.632 51.1746H163.628Z" fill="#005737"/>
<path d="M103.386 12.373C104.011 12.373 104.517 11.867 104.517 11.2414C104.517 9.31857 105.285 7.52456 106.675 6.19514C108.068 4.86573 109.908 4.18032 111.827 4.27232C115.208 4.42872 118.313 7.52915 118.469 10.9148C118.556 12.8422 117.876 14.673 116.546 16.0622C115.217 17.4561 113.423 18.2243 111.5 18.2243C110.874 18.2243 110.368 18.7303 110.368 19.3559V22.7001C110.368 23.3257 110.874 23.8317 111.5 23.8317C112.126 23.8317 112.632 23.3257 112.632 22.7001V20.4185C114.748 20.1655 116.689 19.1949 118.184 17.6263C119.946 15.7816 120.847 13.362 120.732 10.809C120.521 6.25034 116.496 2.2207 111.932 2.0091C109.384 1.8987 106.96 2.79571 105.115 4.55752C103.271 6.31934 102.254 8.69297 102.254 11.2414C102.254 11.867 102.76 12.373 103.386 12.373Z" fill="#005737"/>
<path d="M134.969 67.79H162.078C163.14 67.79 164 66.9298 164 65.8672C164 64.8045 163.14 63.9443 162.078 63.9443H131.358C132.582 64.8873 133.902 66.3732 134.969 67.79Z" fill="#005737"/>
<path d="M120.097 63.9443H62.33C61.2674 63.9443 60.4072 64.8045 60.4072 65.8672C60.4072 66.9298 61.2674 67.79 62.33 67.79H123.069C122.292 66.4974 121.197 65.1265 120.097 63.9443Z" fill="#005737"/>
<path d="M159.258 89.1063C159.327 89.2857 159.511 89.3869 159.699 89.3501L160.463 89.2075C160.909 89.1247 161.199 88.6969 161.116 88.2507L157.983 71.5571C157.896 71.0925 157.45 70.7889 156.985 70.8763C156.521 70.9637 156.208 71.4007 156.263 71.8699C156.705 75.872 153.949 76.907 149.248 75.6696C146.483 74.9428 142.812 74.837 139.349 75.0026C139.523 75.412 139.772 75.8812 139.983 76.4608C154.198 75.3246 157.229 83.7473 159.258 89.1063Z" fill="#005737"/>
<path d="M138.981 78.766C138.852 78.4485 138.732 78.1587 138.622 77.8873C138.447 77.4733 138.268 77.0639 138.079 76.6591C137.84 76.1439 137.582 75.6379 137.315 75.1319C136.382 73.3747 135.296 71.6911 134.063 70.1087C133.447 69.4739 132.922 68.7654 132.196 67.9144C132.159 67.873 132.122 67.8316 132.081 67.7902C130.797 66.4102 129.394 65.1222 127.876 63.9446C125.268 61.9206 122.324 60.2186 119.081 58.9305C107.765 54.4501 95.6022 56.1291 86.5171 62.3438H92.8928C95.3032 61.0328 97.8056 60.1266 100.257 59.6251C98.7164 60.26 97.1478 61.1892 95.6022 62.3438H103.868C107.926 59.4779 112.664 58.6775 118.34 60.927C119.591 61.4238 120.695 62.0724 121.68 62.8544H121.694C121.717 62.8728 121.74 62.8958 121.763 62.9142C122.149 63.227 122.517 63.5674 122.862 63.9216C122.867 63.9262 122.876 63.9354 122.88 63.94C123.023 64.0872 123.17 64.2344 123.308 64.3908C124.417 65.6052 125.056 66.7276 125.512 67.781C125.562 67.896 125.608 68.011 125.654 68.126C125.949 68.7884 126.202 69.4784 126.423 70.2007C126.436 70.2375 126.45 70.2697 126.459 70.3065H126.45C126.956 72.0039 127.264 73.8669 127.375 75.8587L127.379 75.8725C127.402 76.1117 127.416 76.3831 127.425 76.6729C127.448 77.3859 127.439 78.2323 127.398 79.1202C127.398 79.203 127.389 79.2858 127.384 79.3686C127.37 79.64 127.352 79.9114 127.333 80.1874C127.324 80.3438 127.315 80.4956 127.301 80.652C127.292 80.7762 127.278 80.8958 127.269 81.02C127.246 81.2592 127.223 81.4984 127.2 81.733C127.191 81.8342 127.177 81.9354 127.163 82.0366C127.149 82.1654 127.136 82.2942 127.117 82.4184C127.117 82.4414 127.108 82.4644 127.103 82.4874C126.584 86.6044 125.433 91.0159 123.718 95.5009C123.055 97.2765 122.328 99.0476 121.574 100.708C121.588 103.579 121.832 106.357 122.255 108.997C124.27 105.658 126.05 101.895 127.522 98.0263C130.061 91.3563 131.469 84.2446 131.386 78.3059C131.372 77.4595 131.326 76.6453 131.253 75.8495C131.082 74.0187 130.756 72.3305 130.241 70.8631C131.027 72.1603 131.736 73.7933 132.315 75.6839C132.513 76.3325 132.697 77.0087 132.863 77.7171C134.252 83.7248 134.279 91.6645 131.308 99.4708C129.321 104.696 126.262 109.14 122.954 112.581C123.455 114.752 124.072 116.808 124.776 118.713C131.059 115.166 136.175 109.614 138.99 102.498C139.367 101.55 139.684 100.593 139.965 99.6364C140.338 98.2426 140.706 96.5405 140.922 95.1559C141.708 89.5623 140.986 83.9318 138.971 78.7613L138.981 78.766Z" fill="#005737"/>
<path d="M167.998 117.48L165.615 117.149C165.412 117.121 165.224 117.25 165.178 117.452C163.232 125.861 159.469 133.318 145.692 135.903C138.889 137.182 128.851 134.104 123.276 120.534C123.276 120.534 123.262 120.525 123.262 120.52C123.143 120.249 123.032 119.968 122.922 119.692C122.218 117.949 121.657 116.1 121.215 114.287C120.99 113.363 120.797 112.447 120.626 111.555C120.622 111.523 120.613 111.491 120.608 111.458C120.562 111.233 120.511 111.012 120.47 110.782C120.056 108.588 119.794 106.518 119.656 104.558C119.637 104.59 119.619 104.627 119.601 104.659C119.619 104.623 119.637 104.586 119.656 104.554C119.637 104.324 119.628 104.094 119.614 103.864C119.601 103.703 119.591 103.56 119.582 103.422C119.582 103.39 119.578 103.348 119.573 103.316C119.573 103.266 119.573 103.215 119.573 103.164C119.182 94.0058 121.514 87.5381 124.969 83.3107C125.364 81.4569 125.512 79.005 125.512 77.2202C107.061 82.8415 99.0338 98.4632 102.134 114.991C102.429 116.555 102.797 118.073 103.238 119.545C103.579 120.691 103.965 121.804 104.397 122.885C104.411 122.912 104.42 122.945 104.434 122.972C104.742 123.699 105.046 124.38 105.345 125.038C111.196 137.32 123.432 144.671 142.78 141.041C157.905 138.203 166.769 127.835 168.338 117.931C168.375 117.71 168.218 117.507 167.998 117.475V117.48ZM114.84 122.434C114.338 121.473 113.878 120.479 113.469 119.453C113.418 119.334 113.372 119.209 113.326 119.085C112.82 117.774 112.388 116.413 112.052 115.01C111.923 114.467 111.799 113.924 111.698 113.367C109.053 99.1716 114.867 85.9787 124.109 79.9112C117.296 84.8931 114.251 98.7714 115.893 110.626C115.985 111.274 116.086 111.923 116.201 112.558C116.417 113.717 116.689 114.867 117.006 116.003C117.13 116.44 117.259 116.873 117.397 117.305C117.834 118.68 118.336 120.028 118.906 121.335C122.6 129.79 128.989 136.529 136.202 138.074C128.492 137.849 119.688 131.726 114.84 122.434Z" fill="#005737"/>
<path d="M13.49 184.24C11.91 184.24 10.47 183.97 9.17 183.43C7.89 182.89 6.78 182.13 5.84 181.15C4.92 180.19 4.2 179.04 3.68 177.7C3.16 176.34 2.9 174.86 2.9 173.26C2.9 171.64 3.16 170.16 3.68 168.82C4.2 167.48 4.92 166.32 5.84 165.34C6.78 164.36 7.89 163.6 9.17 163.06C10.47 162.52 11.91 162.25 13.49 162.25C15.07 162.25 16.52 162.52 17.84 163.06C19.16 163.6 20.28 164.36 21.2 165.34C22.14 166.32 22.86 167.48 23.36 168.82C23.86 170.16 24.11 171.64 24.11 173.26C24.11 174.86 23.86 176.34 23.36 177.7C22.86 179.04 22.14 180.19 21.2 181.15C20.28 182.13 19.16 182.89 17.84 183.43C16.52 183.97 15.07 184.24 13.49 184.24ZM13.49 181.69C15.07 181.69 16.43 181.35 17.57 180.67C18.71 179.99 19.58 179.02 20.18 177.76C20.8 176.48 21.11 174.98 21.11 173.26C21.11 171.54 20.8 170.05 20.18 168.79C19.58 167.51 18.71 166.52 17.57 165.82C16.43 165.12 15.07 164.77 13.49 164.77C11.93 164.77 10.58 165.12 9.44 165.82C8.3 166.52 7.42 167.51 6.8 168.79C6.18 170.05 5.87 171.54 5.87 173.26C5.87 174.98 6.18 176.47 6.8 177.73C7.42 178.99 8.3 179.97 9.44 180.67C10.58 181.35 11.93 181.69 13.49 181.69ZM31.148 184V162.49H37.538C39.258 162.49 40.708 162.75 41.888 163.27C43.088 163.79 43.998 164.55 44.618 165.55C45.238 166.53 45.548 167.73 45.548 169.15C45.548 170.53 45.218 171.73 44.558 172.75C43.918 173.77 42.998 174.56 41.798 175.12C40.598 175.68 39.178 175.96 37.538 175.96H34.088V184H31.148ZM34.088 173.65H37.538C38.598 173.65 39.508 173.47 40.268 173.11C41.028 172.73 41.608 172.21 42.008 171.55C42.428 170.87 42.638 170.07 42.638 169.15C42.638 167.79 42.208 166.73 41.348 165.97C40.508 165.19 39.238 164.8 37.538 164.8H34.088V173.65ZM28.988 184V182.77C28.988 182.59 29.028 182.45 29.108 182.35C29.188 182.23 29.308 182.16 29.468 182.14L31.718 181.66L32.048 184H28.988ZM32.048 162.49L31.718 164.83L29.468 164.35C29.308 164.31 29.188 164.24 29.108 164.14C29.028 164.04 28.988 163.9 28.988 163.72V162.49H32.048ZM33.188 184L33.518 181.66L35.768 182.14C35.928 182.16 36.048 182.23 36.128 182.35C36.208 182.45 36.248 182.59 36.248 182.77V184H33.188ZM52.4586 184V162.49H65.7186V164.86H55.3986V172.03H63.3186V174.31H55.3986V181.63H65.7186V184H52.4586ZM63.2586 182.38L63.7086 179.38C63.7486 179.2 63.8186 179.08 63.9186 179.02C64.0386 178.94 64.1786 178.9 64.3386 178.9H65.7186V181.63L63.2586 182.38ZM63.2586 164.11L65.7186 164.86V167.59H64.3386C64.1786 167.59 64.0386 167.56 63.9186 167.5C63.8186 167.42 63.7486 167.29 63.7086 167.11L63.2586 164.11ZM53.3586 162.49L53.0286 164.83L50.7786 164.35C50.6186 164.31 50.4986 164.24 50.4186 164.14C50.3386 164.04 50.2986 163.9 50.2986 163.72V162.49H53.3586ZM50.2986 184V182.77C50.2986 182.59 50.3386 182.45 50.4186 182.35C50.4986 182.23 50.6186 182.16 50.7786 182.14L53.0286 181.66L53.3586 184H50.2986ZM73.2125 184V162.49H74.7125C74.9725 162.49 75.1725 162.52 75.3125 162.58C75.4525 162.64 75.5925 162.78 75.7325 163L88.1825 179.2C88.1425 178.94 88.1125 178.69 88.0925 178.45C88.0925 178.19 88.0925 177.95 88.0925 177.73V162.49H90.6425V184H89.1725C88.9525 184 88.7625 183.96 88.6025 183.88C88.4625 183.8 88.3125 183.66 88.1525 183.46L75.7025 167.29C75.7225 167.53 75.7325 167.77 75.7325 168.01C75.7525 168.25 75.7625 168.47 75.7625 168.67V184H73.2125ZM71.0525 184V182.77C71.0525 182.59 71.0925 182.45 71.1725 182.35C71.2525 182.23 71.3725 182.16 71.5325 182.14L73.7825 181.66L74.1125 184H71.0525ZM75.1625 184L75.4925 181.66L77.7425 182.14C77.9025 182.16 78.0225 182.23 78.1025 182.35C78.1825 182.45 78.2225 182.59 78.2225 182.77V184H75.1625ZM74.1125 162.49L73.7825 164.83L71.5325 164.35C71.3725 164.31 71.2525 164.24 71.1725 164.14C71.0925 164.04 71.0525 163.9 71.0525 163.72V162.49H74.1125ZM88.6925 162.49L88.3625 164.83L86.1125 164.35C85.9525 164.31 85.8325 164.24 85.7525 164.14C85.6725 164.04 85.6325 163.9 85.6325 163.72V162.49H88.6925ZM92.8025 162.49V163.72C92.8025 163.9 92.7625 164.04 92.6825 164.14C92.6025 164.24 92.4825 164.31 92.3225 164.35L90.0725 164.83L89.7425 162.49H92.8025ZM108.102 184.24C106.502 184.24 105.042 183.97 103.722 183.43C102.422 182.87 101.302 182.06 100.362 181C99.4623 179.96 98.7923 178.78 98.3523 177.46C97.9323 176.12 97.7223 174.74 97.7223 173.32C97.7223 171.66 97.9823 170.16 98.5023 168.82C99.0423 167.46 99.7823 166.3 100.722 165.34C101.682 164.36 102.812 163.6 104.112 163.06C105.432 162.52 106.862 162.25 108.402 162.25C109.222 162.25 110.002 162.32 110.742 162.46C111.502 162.6 112.252 162.79 112.992 163.03C113.732 163.27 114.482 163.54 115.242 163.84V166.03L113.142 165.64C112.522 165.42 111.832 165.22 111.072 165.04C110.312 164.86 109.492 164.77 108.612 164.77C107.012 164.77 105.612 165.13 104.412 165.85C103.232 166.55 102.312 167.54 101.652 168.82C101.012 170.1 100.692 171.6 100.692 173.32C100.692 174.9 100.982 176.33 101.562 177.61C102.142 178.87 103.012 179.87 104.172 180.61C105.352 181.35 106.802 181.72 108.522 181.72C109.482 181.72 110.372 181.58 111.192 181.3C112.032 181 112.852 180.49 113.652 179.77C113.752 179.69 113.842 179.64 113.922 179.62C114.002 179.58 114.082 179.56 114.162 179.56C114.322 179.56 114.462 179.62 114.582 179.74L115.722 181C114.922 181.92 113.892 182.69 112.632 183.31C111.392 183.93 109.882 184.24 108.102 184.24ZM112.782 165.28L115.242 166.03V168.76H113.862C113.702 168.76 113.562 168.73 113.442 168.67C113.342 168.59 113.272 168.46 113.232 168.28L112.782 165.28ZM123.041 184V162.49H125.981V181.54H135.971V184H123.041ZM133.511 182.29L133.961 179.29C134.001 179.11 134.071 178.99 134.171 178.93C134.291 178.85 134.431 178.81 134.591 178.81H135.971V181.54L133.511 182.29ZM120.881 184V182.77C120.881 182.59 120.921 182.45 121.001 182.35C121.081 182.23 121.201 182.16 121.361 182.14L123.611 181.66L123.941 184H120.881ZM123.941 162.49L123.611 164.83L121.361 164.35C121.201 164.31 121.081 164.24 121.001 164.14C120.921 164.04 120.881 163.9 120.881 163.72V162.49H123.941ZM128.171 162.49V163.72C128.171 163.9 128.131 164.04 128.051 164.14C127.971 164.24 127.851 164.31 127.691 164.35L125.441 164.83L125.111 162.49H128.171ZM149.556 184.24C147.976 184.24 146.536 183.97 145.236 183.43C143.956 182.89 142.846 182.13 141.906 181.15C140.986 180.19 140.266 179.04 139.746 177.7C139.226 176.34 138.966 174.86 138.966 173.26C138.966 171.64 139.226 170.16 139.746 168.82C140.266 167.48 140.986 166.32 141.906 165.34C142.846 164.36 143.956 163.6 145.236 163.06C146.536 162.52 147.976 162.25 149.556 162.25C151.136 162.25 152.586 162.52 153.906 163.06C155.226 163.6 156.346 164.36 157.266 165.34C158.206 166.32 158.926 167.48 159.426 168.82C159.926 170.16 160.176 171.64 160.176 173.26C160.176 174.86 159.926 176.34 159.426 177.7C158.926 179.04 158.206 180.19 157.266 181.15C156.346 182.13 155.226 182.89 153.906 183.43C152.586 183.97 151.136 184.24 149.556 184.24ZM149.556 181.69C151.136 181.69 152.496 181.35 153.636 180.67C154.776 179.99 155.646 179.02 156.246 177.76C156.866 176.48 157.176 174.98 157.176 173.26C157.176 171.54 156.866 170.05 156.246 168.79C155.646 167.51 154.776 166.52 153.636 165.82C152.496 165.12 151.136 164.77 149.556 164.77C147.996 164.77 146.646 165.12 145.506 165.82C144.366 166.52 143.486 167.51 142.866 168.79C142.246 170.05 141.936 171.54 141.936 173.26C141.936 174.98 142.246 176.47 142.866 177.73C143.486 178.99 144.366 179.97 145.506 180.67C146.646 181.35 147.996 181.69 149.556 181.69ZM171.714 184.24C170.954 184.24 170.174 184.17 169.374 184.03C168.594 183.91 167.864 183.76 167.184 183.58C166.524 183.4 165.994 183.24 165.594 183.1V180.43L167.904 181C168.724 181.3 169.414 181.51 169.974 181.63C170.554 181.75 171.214 181.81 171.954 181.81C172.854 181.81 173.624 181.65 174.264 181.33C174.924 181.01 175.434 180.56 175.794 179.98C176.154 179.4 176.334 178.74 176.334 178C176.334 177.3 176.184 176.73 175.884 176.29C175.584 175.85 175.184 175.5 174.684 175.24C174.184 174.96 173.624 174.73 173.004 174.55C172.404 174.35 171.784 174.14 171.144 173.92C170.324 173.64 169.514 173.29 168.714 172.87C167.934 172.45 167.294 171.89 166.794 171.19C166.294 170.47 166.044 169.52 166.044 168.34C166.044 167.16 166.314 166.11 166.854 165.19C167.414 164.27 168.194 163.55 169.194 163.03C170.194 162.51 171.374 162.25 172.734 162.25C173.594 162.25 174.544 162.36 175.584 162.58C176.644 162.78 177.644 163.08 178.584 163.48V165.7L176.304 165.25C175.664 165.07 175.024 164.93 174.384 164.83C173.764 164.73 173.214 164.68 172.734 164.68C171.514 164.68 170.544 164.99 169.824 165.61C169.104 166.21 168.744 166.99 168.744 167.95C168.744 168.79 168.994 169.44 169.494 169.9C170.014 170.36 170.664 170.73 171.444 171.01C172.244 171.29 173.064 171.58 173.904 171.88C174.844 172.2 175.704 172.58 176.484 173.02C177.264 173.46 177.884 174.04 178.344 174.76C178.824 175.46 179.064 176.4 179.064 177.58C179.064 178.84 178.764 179.98 178.164 181C177.584 182 176.744 182.79 175.644 183.37C174.564 183.95 173.254 184.24 171.714 184.24ZM176.124 164.95L178.584 165.7V168.43H177.204C177.044 168.43 176.904 168.4 176.784 168.34C176.684 168.26 176.614 168.13 176.574 167.95L176.124 164.95ZM168.054 181.18L165.594 180.43V177.7H166.974C167.134 177.7 167.274 177.74 167.394 177.82C167.514 177.88 167.584 178 167.604 178.18L168.054 181.18ZM186.562 184V162.49H199.822V164.86H189.502V172.03H197.422V174.31H189.502V181.63H199.822V184H186.562ZM197.362 182.38L197.812 179.38C197.852 179.2 197.922 179.08 198.022 179.02C198.142 178.94 198.282 178.9 198.442 178.9H199.822V181.63L197.362 182.38ZM197.362 164.11L199.822 164.86V167.59H198.442C198.282 167.59 198.142 167.56 198.022 167.5C197.922 167.42 197.852 167.29 197.812 167.11L197.362 164.11ZM187.462 162.49L187.132 164.83L184.882 164.35C184.722 164.31 184.602 164.24 184.522 164.14C184.442 164.04 184.402 163.9 184.402 163.72V162.49H187.462ZM184.402 184V182.77C184.402 182.59 184.442 182.45 184.522 182.35C184.602 182.23 184.722 182.16 184.882 182.14L187.132 181.66L187.462 184H184.402ZM211.726 184V164.95H204.736V162.49H221.566V164.95H214.636V184H211.726ZM209.566 184V182.77C209.566 182.59 209.606 182.45 209.686 182.35C209.766 182.23 209.886 182.16 210.046 182.14L212.296 181.66L212.626 184H209.566ZM213.736 184L214.066 181.66L216.316 182.14C216.476 182.16 216.596 182.23 216.676 182.35C216.756 182.45 216.796 182.59 216.796 182.77V184H213.736ZM219.106 164.2L221.566 164.95V167.68H220.186C220.026 167.68 219.886 167.65 219.766 167.59C219.666 167.51 219.596 167.38 219.556 167.2L219.106 164.2ZM207.196 164.2L206.746 167.2C206.726 167.38 206.656 167.51 206.536 167.59C206.416 167.65 206.276 167.68 206.116 167.68H204.736V164.95L207.196 164.2Z" fill="#005737"/>
</g>
<defs>
<filter id="filter0_d_389_49" x="0.899902" y="0" width="226.666" height="190.24" filterUnits="userSpaceOnUse" color-interpolation-filters="sRGB">
<feFlood flood-opacity="0" result="BackgroundImageFix"/>
<feColorMatrix in="SourceAlpha" type="matrix" values="0 0 0 0 0 0 0 0 0 0 0 0 0 0 0 0 0 0 127 0" result="hardAlpha"/>
<feOffset dx="2" dy="2"/>
<feGaussianBlur stdDeviation="2"/>
<feComposite in2="hardAlpha" operator="out"/>
<feColorMatrix type="matrix" values="0 0 0 0 0 0 0 0 0 0 0 0 0 0 0 0 0 0 0.25 0"/>
<feBlend mode="normal" in2="BackgroundImageFix" result="effect1_dropShadow_389_49"/>
<feBlend mode="normal" in="SourceGraphic" in2="effect1_dropShadow_389_49" result="shape"/>
</filter>
</defs>
</svg>
