<svg width="45" height="40" viewBox="0 0 45 40" fill="none" xmlns="http://www.w3.org/2000/svg">
<path d="M40.4178 22.9622L26.1439 37.4958C25.1975 38.459 23.9142 39 22.5761 39C21.2379 39 19.9546 38.459 19.0082 37.4958L4.73433 22.9648C3.5544 21.7741 2.6171 20.3578 1.97627 18.7973C1.33543 17.2369 1.00367 15.5629 1.00003 13.8716C0.996392 12.1802 1.32095 10.5048 1.95507 8.94146C2.58918 7.37814 3.52037 5.95772 4.69518 4.76175C5.86998 3.56578 7.26526 2.61782 8.80091 1.97227C10.3366 1.32673 11.9823 0.996327 13.6438 1.00003C15.3052 1.00373 16.9495 1.34147 18.4824 1.99386C20.0152 2.64624 21.4064 3.60042 22.5761 4.80161C24.9518 2.44323 28.1447 1.13267 31.4629 1.15384C34.7812 1.175 37.9576 2.52619 40.3042 4.9147C42.6508 7.3032 43.9785 10.5367 43.9997 13.9147C44.021 17.2928 42.7341 20.5433 40.4178 22.9622Z" fill="black" fill-opacity="0.15" stroke="white" stroke-width="2" stroke-linecap="round" stroke-linejoin="round"/>
</svg>
