<svg width="43" height="38" viewBox="0 0 43 38" fill="none" xmlns="http://www.w3.org/2000/svg">
<path d="M39.4178 21.9622L25.1439 36.4958C24.1975 37.459 22.9142 38 21.5761 38C20.2379 38 18.9546 37.459 18.0082 36.4958L3.73433 21.9648C2.5544 20.7741 1.6171 19.3578 0.976266 17.7973C0.335429 16.2369 0.00366836 14.5629 3.025e-05 12.8716C-0.00360786 11.1802 0.320949 9.50477 0.955067 7.94146C1.58918 6.37814 2.52037 4.95772 3.69518 3.76175C4.86998 2.56578 6.26526 1.61782 7.80091 0.972273C9.33656 0.326731 10.9823 -0.00367286 12.6438 3.07951e-05C14.3052 0.00373445 15.9495 0.341472 17.4824 0.993855C19.0152 1.64624 20.4064 2.60042 21.5761 3.80161C23.9518 1.44323 27.1447 0.13267 30.4629 0.153836C33.7812 0.175002 36.9576 1.52619 39.3042 3.91469C41.6508 6.3032 42.9785 9.5367 42.9997 12.9147C43.021 16.2928 41.7341 19.5433 39.4178 21.9622Z" fill="#FF0000"/>
</svg>
