<svg width="41" height="41" viewBox="0 0 41 41" fill="none" xmlns="http://www.w3.org/2000/svg">
<path d="M32.3154 28.6985C35.0341 25.0653 36.2755 20.5371 35.7898 16.0254C35.3041 11.5138 33.1272 7.35356 29.6975 4.38229C26.2678 1.41102 21.8399 -0.150708 17.305 0.0114767C12.7702 0.173662 8.46508 2.04772 5.2564 5.2564C2.04772 8.46508 0.173662 12.7702 0.0114767 17.305C-0.150708 21.8399 1.41102 26.2678 4.38229 29.6975C7.35356 33.1272 11.5138 35.3041 16.0254 35.7898C20.5371 36.2755 25.0653 35.0341 28.6985 32.3154L37.3831 41L41 37.3899L32.3154 28.6985ZM18.0114 30.7828C15.4854 30.7828 13.0162 30.0338 10.916 28.6305C8.8157 27.2271 7.17875 25.2325 6.21211 22.8988C5.24547 20.5651 4.99256 17.9972 5.48535 15.5198C5.97813 13.0424 7.1945 10.7667 8.98062 8.98062C10.7667 7.1945 13.0424 5.97813 15.5198 5.48535C17.9972 4.99256 20.5651 5.24547 22.8988 6.21211C25.2325 7.17875 27.2271 8.8157 28.6305 10.916C30.0338 13.0162 30.7828 15.4854 30.7828 18.0114C30.7797 21.3976 29.4331 24.6443 27.0387 27.0387C24.6443 29.4331 21.3976 30.7797 18.0114 30.7828Z" fill="#575757"/>
</svg>
