<svg width="10" height="43" viewBox="0 0 10 43" fill="none" xmlns="http://www.w3.org/2000/svg">
<path d="M4.75 9.5C3.49022 9.5 2.28204 8.99956 1.39124 8.10876C0.500446 7.21796 -2.36384e-07 6.00978 -1.81317e-07 4.75C-1.2625e-07 3.49022 0.500446 2.28204 1.39124 1.39124C2.28204 0.500445 3.49022 -2.62696e-07 4.75 -2.07629e-07C6.00978 -1.52562e-07 7.21796 0.500445 8.10876 1.39124C8.99955 2.28204 9.5 3.49022 9.5 4.75C9.5 6.00978 8.99955 7.21796 8.10876 8.10876C7.21796 8.99956 6.00978 9.5 4.75 9.5ZM4.75 26.125C3.49022 26.125 2.28204 25.6246 1.39124 24.7338C0.500445 23.843 -9.63086e-07 22.6348 -9.08019e-07 21.375C-8.52952e-07 20.1152 0.500445 18.907 1.39124 18.0162C2.28204 17.1254 3.49022 16.625 4.75 16.625C6.00978 16.625 7.21796 17.1254 8.10876 18.0162C8.99955 18.907 9.5 20.1152 9.5 21.375C9.5 22.6348 8.99955 23.843 8.10876 24.7338C7.21796 25.6246 6.00978 26.125 4.75 26.125ZM4.75 42.75C3.49022 42.75 2.28204 42.2496 1.39124 41.3588C0.500444 40.468 -1.68979e-06 39.2598 -1.63472e-06 38C-1.57965e-06 36.7402 0.500445 35.532 1.39124 34.6412C2.28204 33.7505 3.49022 33.25 4.75 33.25C6.00978 33.25 7.21796 33.7505 8.10875 34.6413C8.99955 35.532 9.5 36.7402 9.5 38C9.5 39.2598 8.99955 40.468 8.10875 41.3588C7.21796 42.2496 6.00978 42.75 4.75 42.75Z" fill="#575757"/>
</svg>
