<svg width="37" height="43" viewBox="0 0 37 43" fill="none" xmlns="http://www.w3.org/2000/svg">
<path d="M12.3889 21.5001C12.3889 23.0104 11.7889 24.4588 10.721 25.5267C9.65311 26.5946 8.20471 27.1946 6.69444 27.1946C5.18418 27.1946 3.73578 26.5946 2.66786 25.5267C1.59995 24.4588 1 23.0104 1 21.5001C1 19.9898 1.59995 18.5414 2.66786 17.4735C3.73578 16.4056 5.18418 15.8057 6.69444 15.8057C8.20471 15.8057 9.65311 16.4056 10.721 17.4735C11.7889 18.5414 12.3889 19.9898 12.3889 21.5001Z" stroke="#575757" stroke-width="2"/>
<path d="M23.7776 8.97217L12.3887 16.9444M23.7776 34.0277L12.3887 26.0555" stroke="#575757" stroke-width="2" stroke-linecap="round"/>
<path d="M35.1667 36.3056C35.1667 37.8158 34.5668 39.2642 33.4989 40.3321C32.4309 41.4 30.9825 42 29.4723 42C27.962 42 26.5136 41.4 25.4457 40.3321C24.3778 39.2642 23.7778 37.8158 23.7778 36.3056C23.7778 34.7953 24.3778 33.3469 25.4457 32.279C26.5136 31.2111 27.962 30.6111 29.4723 30.6111C30.9825 30.6111 32.4309 31.2111 33.4989 32.279C34.5668 33.3469 35.1667 34.7953 35.1667 36.3056ZM35.1667 6.69444C35.1667 8.2047 34.5668 9.65311 33.4989 10.721C32.4309 11.7889 30.9825 12.3889 29.4723 12.3889C27.962 12.3889 26.5136 11.7889 25.4457 10.721C24.3778 9.65311 23.7778 8.2047 23.7778 6.69444C23.7778 5.18418 24.3778 3.73578 25.4457 2.66786C26.5136 1.59995 27.962 1 29.4723 1C30.9825 1 32.4309 1.59995 33.4989 2.66786C34.5668 3.73578 35.1667 5.18418 35.1667 6.69444Z" stroke="#575757" stroke-width="2"/>
</svg>
