<svg width="38" height="43" viewBox="0 0 38 43" fill="none" xmlns="http://www.w3.org/2000/svg">
<path d="M1 10.1111H37M14.5 19.2222V32.8889M23.5 19.2222V32.8889M3.25 10.1111L5.5 37.4444C5.5 38.6527 5.97411 39.8114 6.81802 40.6657C7.66193 41.52 8.80653 42 10 42H28C29.1935 42 30.3381 41.52 31.182 40.6657C32.0259 39.8114 32.5 38.6527 32.5 37.4444L34.75 10.1111M12.25 10.1111V3.27778C12.25 2.67367 12.4871 2.09431 12.909 1.66715C13.331 1.23998 13.9033 1 14.5 1H23.5C24.0967 1 24.669 1.23998 25.091 1.66715C25.5129 2.09431 25.75 2.67367 25.75 3.27778V10.1111" stroke="black" stroke-width="2" stroke-linecap="round" stroke-linejoin="round"/>
</svg>
