<svg width="41" height="41" viewBox="0 0 41 41" fill="none" xmlns="http://www.w3.org/2000/svg">
<path d="M20.5 3.72727C16.0516 3.72727 11.7854 5.49439 8.63989 8.63989C5.4944 11.7854 3.72728 16.0516 3.72728 20.5C3.72149 24.1019 4.88055 27.6092 7.0315 30.4984C7.6653 28.6667 8.85449 27.0783 10.4335 25.9543C12.0125 24.8302 13.9027 24.2265 15.8409 24.2273H25.1591C27.0973 24.2265 28.9875 24.8302 30.5665 25.9543C32.1455 27.0783 33.3347 28.6667 33.9685 30.4984C36.1194 27.6092 37.2785 24.1019 37.2727 20.5C37.2727 16.0516 35.5056 11.7854 32.3601 8.63989C29.2146 5.49439 24.9484 3.72727 20.5 3.72727ZM30.75 33.7784V33.5454C30.75 32.0626 30.161 30.6406 29.1125 29.5921C28.064 28.5436 26.6419 27.9545 25.1591 27.9545H15.8409C14.3581 27.9545 12.936 28.5436 11.8875 29.5921C10.839 30.6406 10.25 32.0626 10.25 33.5454V33.7784C13.1836 36.0495 16.79 37.2789 20.5 37.2727C24.3615 37.2727 27.9154 35.9682 30.75 33.7784ZM8.37982e-06 20.5C8.37982e-06 9.1784 9.17841 0 20.5 0C31.8216 0 41 9.1784 41 20.5C41.0027 23.4614 40.3625 26.3882 39.1237 29.0781C37.885 31.768 36.0771 34.1569 33.825 36.08C30.115 39.2613 25.3872 41.0069 20.5 41C15.6128 41.0069 10.885 39.2613 7.17501 36.08C4.92289 34.1569 3.11502 31.768 1.87625 29.0781C0.637479 26.3882 -0.00267156 23.4614 8.37982e-06 20.5ZM20.5 9.31818C19.2643 9.31818 18.0793 9.80904 17.2055 10.6828C16.3318 11.5565 15.8409 12.7416 15.8409 13.9773C15.8409 15.2129 16.3318 16.398 17.2055 17.2717C18.0793 18.1455 19.2643 18.6364 20.5 18.6364C21.7357 18.6364 22.9207 18.1455 23.7945 17.2717C24.6682 16.398 25.1591 15.2129 25.1591 13.9773C25.1591 12.7416 24.6682 11.5565 23.7945 10.6828C22.9207 9.80904 21.7357 9.31818 20.5 9.31818ZM12.1136 13.9773C12.1136 11.7531 12.9972 9.61996 14.5699 8.04721C16.1427 6.47447 18.2758 5.59091 20.5 5.59091C22.7242 5.59091 24.8573 6.47447 26.4301 8.04721C28.0028 9.61996 28.8864 11.7531 28.8864 13.9773C28.8864 16.2015 28.0028 18.3346 26.4301 19.9073C24.8573 21.4801 22.7242 22.3636 20.5 22.3636C18.2758 22.3636 16.1427 21.4801 14.5699 19.9073C12.9972 18.3346 12.1136 16.2015 12.1136 13.9773Z" fill="black"/>
</svg>
