<svg width="37" height="41" viewBox="0 0 37 41" fill="none" xmlns="http://www.w3.org/2000/svg">
<path d="M2.7461 12.6829L2.75183 12.6786L2.75751 12.6743L16.6325 2.13147L16.6325 2.13151L16.6416 2.12454C17.1834 1.70631 17.7847 1.5 18.5 1.5C19.2153 1.5 19.8166 1.70631 20.3584 2.12454L20.3584 2.12458L20.3675 2.13148L34.2425 12.6743L34.2489 12.6792L34.2554 12.6841C34.6375 12.968 34.939 13.3278 35.1652 13.7851C35.3907 14.2408 35.5011 14.7149 35.5 15.2255V15.2286V36.3143C35.5 37.2078 35.2025 37.9329 34.5727 38.571C33.9435 39.2085 33.2382 39.5011 32.3768 39.5H32.375H25.4375C25.1671 39.5 25.009 39.4244 24.8604 39.2734C24.708 39.1185 24.6259 38.9457 24.625 38.655V26.9429C24.625 25.9066 24.2626 24.9642 23.5247 24.2192C22.7888 23.4762 21.8527 23.1025 20.8161 23.1H20.8125H16.1875C15.1475 23.1 14.208 23.4743 13.4716 24.2229C12.7393 24.9674 12.3774 25.9064 12.375 26.9394V26.9429V38.6571C12.375 38.9485 12.2933 39.12 12.1414 39.2739C11.9908 39.4265 11.8327 39.5006 11.5661 39.5H11.5625H4.625C3.76011 39.5 3.0545 39.2064 2.4273 38.571C1.79965 37.9351 1.50125 37.2099 1.5 36.3133V15.2286C1.5 14.7169 1.61116 14.2417 1.83705 13.7851C2.06375 13.3268 2.36514 12.9667 2.7461 12.6829Z" stroke="black" stroke-width="3"/>
</svg>
