<svg width="45" height="45" viewBox="0 0 45 45" fill="none" xmlns="http://www.w3.org/2000/svg">
<path d="M15.6667 38.4444L3.79945 42.4009C3.59383 42.4696 3.37483 42.4883 3.16054 42.4556C2.94624 42.4229 2.7428 42.3397 2.56701 42.2129C2.39122 42.0861 2.24812 41.9192 2.14953 41.7262C2.05094 41.5331 1.99968 41.3194 2 41.1026V7.54183C2.00006 7.25515 2.09027 6.97574 2.25787 6.74315C2.42546 6.51056 2.66196 6.33656 2.93389 6.24578L15.6667 2M15.6667 38.4444L29.3333 43M15.6667 38.4444V2M15.6667 2L29.3333 6.55556M29.3333 43L42.0661 38.7565C42.3384 38.6656 42.5752 38.4912 42.7428 38.2582C42.9104 38.0252 43.0004 37.7452 43 37.4582V3.89511C42.9999 3.67853 42.9484 3.46506 42.8497 3.2723C42.7509 3.07954 42.6078 2.913 42.4321 2.78643C42.2563 2.65985 42.053 2.57685 41.8389 2.54427C41.6248 2.51169 41.406 2.53047 41.2005 2.59906L29.3333 6.55556M29.3333 43V6.55556" stroke="black" stroke-width="3" stroke-linecap="round" stroke-linejoin="round"/>
</svg>
