<svg width="47" height="42" viewBox="0 0 47 42" fill="none" xmlns="http://www.w3.org/2000/svg">
<path d="M41.4178 23.9622L27.1439 38.4958C26.1975 39.459 24.9142 40 23.5761 40C22.2379 40 20.9546 39.459 20.0082 38.4958L5.73433 23.9648C4.5544 22.7741 3.6171 21.3578 2.97627 19.7973C2.33543 18.2369 2.00367 16.5629 2.00003 14.8716C1.99639 13.1802 2.32095 11.5048 2.95507 9.94146C3.58918 8.37814 4.52037 6.95772 5.69518 5.76175C6.86998 4.56578 8.26526 3.61782 9.80091 2.97227C11.3366 2.32673 12.9823 1.99633 14.6438 2.00003C16.3052 2.00373 17.9495 2.34147 19.4824 2.99386C21.0152 3.64624 22.4064 4.60042 23.5761 5.80161C25.9518 3.44323 29.1447 2.13267 32.4629 2.15384C35.7812 2.175 38.9576 3.52619 41.3042 5.91469C43.6508 8.3032 44.9785 11.5367 44.9997 14.9147C45.021 18.2928 43.7341 21.5433 41.4178 23.9622Z" stroke="black" stroke-width="3" stroke-linecap="round" stroke-linejoin="round"/>
</svg>
