<svg width="42" height="42" viewBox="0 0 42 42" fill="none" xmlns="http://www.w3.org/2000/svg">
<path d="M21.0028 40C25.2185 39.9994 29.3143 38.5967 32.6453 36.0128C35.9764 33.429 38.3535 29.8107 39.4024 25.7276C40.4514 21.6444 40.1126 17.3284 38.4394 13.459C36.7662 9.58955 33.8536 6.38647 30.1602 4.354C26.4668 2.32154 22.2024 1.57513 18.0382 2.2323C13.874 2.88946 10.0467 4.91287 7.15869 7.98397C4.2707 11.0551 2.4861 14.9994 2.08585 19.1961C1.6856 23.3928 2.69243 27.6033 4.94783 31.165L2.00283 40L10.8378 37.055C13.8769 38.9838 17.4033 40.0055 21.0028 40Z" fill="black" stroke="black" stroke-width="3" stroke-linecap="round" stroke-linejoin="round"/>
</svg>
