<svg width="41" height="41" viewBox="0 0 41 41" fill="none" xmlns="http://www.w3.org/2000/svg">
<path d="M41 20.5C41 26.7339 38.2176 32.3192 33.825 36.08C30.115 39.2613 25.3872 41.0069 20.5 41C15.4123 41 10.7588 39.1475 7.17501 36.08C4.92289 34.1569 3.11502 31.768 1.87625 29.0781C0.637479 26.3882 -0.00267156 23.4614 8.37982e-06 20.5C8.37982e-06 9.1784 9.17842 0 20.5 0C31.8216 0 41 9.1784 41 20.5ZM27.9545 13.9773C27.9545 12.0002 27.1692 10.1041 25.7712 8.70611C24.3732 7.30811 22.4771 6.52272 20.5 6.52272C18.5229 6.52272 16.6268 7.30811 15.2288 8.70611C13.8308 10.1041 13.0455 12.0002 13.0455 13.9773C13.0455 15.9543 13.8308 17.8504 15.2288 19.2484C16.6268 20.6464 18.5229 21.4318 20.5 21.4318C22.4771 21.4318 24.3732 20.6464 25.7712 19.2484C27.1692 17.8504 27.9545 15.9543 27.9545 13.9773ZM32.6136 32.1011V31.6818C32.6136 29.7047 31.8282 27.8086 30.4303 26.4106C29.0323 25.0126 27.1362 24.2273 25.1591 24.2273H15.8409C13.8638 24.2273 11.9678 25.0126 10.5698 26.4106C9.17176 27.8086 8.38637 29.7047 8.38637 31.6818V32.1011C8.77152 32.5024 9.17531 32.8845 9.59773 33.2473C12.6326 35.8512 16.5011 37.2796 20.5 37.2727C22.7643 37.277 25.0058 36.8208 27.0883 35.9318C29.1707 35.0427 31.0506 33.7394 32.6136 32.1011Z" fill="black"/>
</svg>
