<svg width="38" height="41" viewBox="0 0 38 41" fill="none" xmlns="http://www.w3.org/2000/svg">
<path d="M2.19357 11.8847L2.19359 11.8848L2.19738 11.8819L16.4474 1.3391L16.4504 1.33684C17.1925 0.779098 18.0364 0.5 19 0.5C19.9636 0.5 20.8075 0.779098 21.5496 1.33685L21.5526 1.33909L35.8026 11.882L35.8069 11.8851C36.3352 12.2673 36.7489 12.7523 37.0507 13.3465C37.3523 13.9401 37.5014 14.565 37.5 15.2275V15.2286V36.3143C37.5 37.4668 37.0897 38.4428 36.2524 39.2688C35.4148 40.095 34.4233 40.5014 33.2506 40.5H33.25H26.125C25.5761 40.5 25.1412 40.3218 24.7857 39.9699C24.4296 39.6174 24.2513 39.1904 24.25 38.6559V26.9429C24.25 26.1507 23.9721 25.4644 23.4165 24.9182C22.8623 24.3733 22.171 24.1018 21.3762 24.1H21.375H16.625C15.828 24.1 15.1356 24.3716 14.5822 24.9194C14.0295 25.4665 13.7519 26.1516 13.75 26.9417V26.9429V38.6571C13.75 39.1926 13.5718 39.6195 13.2149 39.9716C12.8576 40.324 12.4227 40.5013 11.8762 40.5H11.875H4.75C3.5751 40.5 2.58343 40.0933 1.74764 39.2688C0.91211 38.4446 0.50149 37.4686 0.5 36.314V15.2286C0.5 14.5657 0.64991 13.9404 0.951643 13.3465C1.25367 12.752 1.66672 12.2669 2.19357 11.8847Z" fill="#1F1F1F" stroke="black"/>
</svg>
