<svg width="45" height="45" viewBox="0 0 45 45" fill="none" xmlns="http://www.w3.org/2000/svg">
<path d="M15.6667 38.547L3.79945 42.5035C3.59383 42.5721 3.37483 42.5909 3.16054 42.5582C2.94624 42.5255 2.7428 42.4423 2.56701 42.3154C2.39122 42.1886 2.24812 42.0218 2.14953 41.8287C2.05094 41.6357 1.99968 41.4219 2 41.2052V7.64437C2.00006 7.35769 2.09027 7.07828 2.25787 6.84569C2.42546 6.6131 2.66196 6.4391 2.93389 6.34832L15.6667 2.10254M15.6667 38.547L29.3333 43.1025ZM15.6667 38.547V2.10254ZM29.3333 43.1025L42.0661 38.859C42.3384 38.7681 42.5752 38.5938 42.7428 38.3607C42.9104 38.1277 43.0004 37.8478 43 37.5607V3.99765C43 3.78107 42.9484 3.5676 42.8497 3.37484C42.751 3.18208 42.6078 3.01554 42.4321 2.88896C42.2563 2.76239 42.053 2.67939 41.8389 2.64681C41.6248 2.61423 41.406 2.63301 41.2006 2.70159L29.3333 6.65809M29.3333 43.1025V6.65809ZM29.3333 6.65809L15.6667 2.10254Z" fill="black"/>
<path d="M15.6667 38.547L3.79945 42.5035C3.59383 42.5721 3.37483 42.5909 3.16054 42.5582C2.94624 42.5255 2.7428 42.4423 2.56701 42.3154C2.39122 42.1886 2.24812 42.0218 2.14953 41.8287C2.05094 41.6357 1.99968 41.4219 2 41.2052V7.64437C2.00006 7.35769 2.09027 7.07828 2.25787 6.84569C2.42546 6.6131 2.66196 6.4391 2.93389 6.34832L15.6667 2.10254M15.6667 38.547L29.3333 43.1025M15.6667 38.547V2.10254M15.6667 2.10254L29.3333 6.65809M29.3333 43.1025L42.0661 38.859C42.3384 38.7681 42.5752 38.5938 42.7428 38.3607C42.9104 38.1277 43.0004 37.8478 43 37.5607V3.99765C43 3.78107 42.9484 3.5676 42.8497 3.37484C42.751 3.18208 42.6078 3.01554 42.4321 2.88896C42.2563 2.76239 42.053 2.67939 41.8389 2.64681C41.6248 2.61423 41.406 2.63301 41.2006 2.70159L29.3333 6.65809M29.3333 43.1025V6.65809" stroke="black" stroke-width="3" stroke-linecap="round" stroke-linejoin="round"/>
</svg>
